# xmcd
#
# Track frame offsets:
#	150
#	11684
#	23825
#	36756
#	52455
#	63683
#	75995
#	89002
#	101184
#	113045
#
# Disc length: 1660 seconds
#
# Revision: 1
# Processed by: cddbd v1.5.2PL0 Copyright (c) Steve Scherf et al.
# Submitted via: audiograbber 1.83.01
#
DISCID=85067a0a
DTITLE=Porter Wagoner - Ballads Of Love
DYEAR=1972
DGENRE=Country
TTITLE0=Ballad Of Love
TTITLE1=Love You're So Beautiful Tonight
TTITLE2=Denise Mayree
TTITLE3=Look What Love Has Done To Me
TTITLE4=The Hands Of Love
TTITLE5=Love's Melody
TTITLE6=Love's All Over
TTITLE7=With You
TTITLE8=How Close They Must Be
TTITLE9=Together You And I
EXTD=
EXTT0=
EXTT1=
EXTT2=
EXTT3=
EXTT4=
EXTT5=
EXTT6=
EXTT7=
EXTT8=
EXTT9=
PLAYORDER=
